<svg width="21" height="12" viewBox="0 0 21 12" fill="none" xmlns="http://www.w3.org/2000/svg">
<path d="M8.75976 1.63102L0.525545 9.19026C-0.174488 9.83291 -0.174488 10.8684 0.521391 11.5091C1.21727 12.148 2.34937 12.148 3.04733 11.5053L10.1785 4.95678L17.3118 11.5053C18.0118 12.148 19.1398 12.148 19.8377 11.5091C20.5336 10.8703 20.5336 9.831 19.8336 9.19026L11.5994 1.63102C11.5537 1.57762 11.5038 1.52614 11.4498 1.47655C11.1257 1.17907 10.7041 1.01888 10.2762 0.99981C9.78385 0.973113 9.28323 1.13139 8.90725 1.47655C8.85324 1.52614 8.80338 1.57762 8.75976 1.63102Z" fill="#5E5E5E"/>
</svg>
