<svg width="19" height="13" viewBox="0 0 19 13" fill="none" xmlns="http://www.w3.org/2000/svg">
<path d="M18.2759 11.3576V3.35758C18.2759 3.35758 10.0859 9.00203 9.28938 9.29492C8.50638 9.01536 0.275879 3.35758 0.275879 3.35758V11.3576C0.275879 12.4687 0.514379 12.6909 1.62588 12.6909H16.9259C18.0639 12.6909 18.2759 12.4958 18.2759 11.3576ZM18.2628 1.78914C18.2628 0.979807 18.0239 0.690918 16.9259 0.690918H1.62588C0.496379 0.690918 0.275879 1.03758 0.275879 1.84647L0.289379 1.97092C0.289379 1.97092 8.42043 7.49981 9.28938 7.80203C10.2074 7.45092 18.2759 1.84647 18.2759 1.84647L18.2628 1.78914Z" fill="#979590"/>
</svg>
