<svg width="16" height="17" viewBox="0 0 16 17" fill="none" xmlns="http://www.w3.org/2000/svg">
<path d="M3.63727 7.61536C4.83727 10.1309 6.77061 12.1843 9.12894 13.4731L10.9623 11.5176C11.1873 11.2776 11.5206 11.1976 11.8123 11.3043C12.7456 11.6331 13.7539 11.8109 14.7873 11.8109C15.2456 11.8109 15.6206 12.2109 15.6206 12.6998V15.802C15.6206 16.2909 15.2456 16.6909 14.7873 16.6909C6.96227 16.6909 0.620605 9.92647 0.620605 1.57981C0.620605 1.09092 0.995605 0.690918 1.45394 0.690918H4.37061C4.82894 0.690918 5.20394 1.09092 5.20394 1.57981C5.20394 2.69092 5.3706 3.75758 5.67894 4.75314C5.77061 5.06425 5.70394 5.41092 5.4706 5.65981L3.63727 7.61536Z" fill="white" fill-opacity="0.7"/>
</svg>
