<svg width="38" height="38" viewBox="0 0 38 38" fill="none" xmlns="http://www.w3.org/2000/svg">
<g clip-path="url(#clip0_203_75)">
<path d="M30.0734 16.5052C29.1828 16.5052 28.4406 17.2473 28.4406 18.138C28.4406 18.4348 28.5297 18.7317 28.6781 18.9989L25.4719 23.0958C25.2937 23.0364 25.1156 23.0067 24.9078 23.0067C24.5812 23.0067 24.2844 23.0958 24.0172 23.2739L21.3156 21.1067C21.375 20.9286 21.4344 20.7208 21.4344 20.5427C21.4344 19.652 20.6922 18.9098 19.8015 18.9098C18.9109 18.9098 18.1687 19.652 18.1687 20.5427C18.1687 20.8395 18.2578 21.1067 18.4062 21.3739C18.525 21.5817 18.7328 21.7895 18.9703 21.938C19.2078 22.0864 19.5047 22.1755 19.8015 22.1755C20.0687 22.1755 20.3359 22.1161 20.5734 21.9677L23.3344 24.1645C23.3047 24.313 23.275 24.4614 23.275 24.6098C23.275 25.5005 24.0172 26.2427 24.9078 26.2427C25.7984 26.2427 26.5406 25.5005 26.5406 24.6098C26.5406 24.3427 26.4812 24.0755 26.3328 23.838L29.5984 19.6817C29.7469 19.7411 29.925 19.7708 30.1031 19.7708C30.9937 19.7708 31.7359 19.0286 31.7359 18.138C31.7062 17.2473 30.9937 16.5052 30.0734 16.5052ZM14.6656 16.5052H7.21404C6.70936 16.5052 6.29373 16.9208 6.29373 17.4255C6.29373 17.9302 6.70936 18.3458 7.21404 18.3458H14.6656C15.1703 18.3458 15.5859 17.9302 15.5859 17.4255C15.6156 16.9208 15.2 16.5052 14.6656 16.5052ZM14.6656 20.7802H7.21404C6.70936 20.7802 6.29373 21.1958 6.29373 21.7005C6.29373 22.2052 6.70936 22.6208 7.21404 22.6208H14.6656C15.1703 22.6208 15.5859 22.2052 15.5859 21.7005C15.6156 21.1958 15.2 20.7802 14.6656 20.7802ZM10.8953 25.0255H7.21404C6.70936 25.0255 6.29373 25.4411 6.29373 25.9458C6.29373 26.4505 6.70936 26.8661 7.21404 26.8661H10.8953C11.4 26.8661 11.8156 26.4505 11.8156 25.9458C11.8453 25.4411 11.4297 25.0255 10.8953 25.0255Z" fill="#F3F0EB"/>
<path d="M34.5265 3.68015H3.4734C1.95934 3.68015 0.712463 4.92702 0.712463 6.44108V31.5567C0.712463 33.0708 1.95934 34.3176 3.4734 34.3176H34.5562C36.0703 34.3176 37.3172 33.0708 37.3172 31.5567V6.44108C37.3172 4.92702 36.0703 3.68015 34.5265 3.68015ZM13.4187 5.84733C14.0422 5.84733 14.5468 6.35202 14.5468 6.97546C14.5468 7.5989 14.0422 8.10358 13.4187 8.10358C12.7953 8.10358 12.2906 7.5989 12.2906 6.97546C12.2906 6.35202 12.7953 5.84733 13.4187 5.84733ZM8.54996 5.84733C9.1734 5.84733 9.67809 6.35202 9.67809 6.97546C9.67809 7.5989 9.1734 8.10358 8.54996 8.10358C7.92653 8.10358 7.42184 7.5989 7.42184 6.97546C7.42184 6.35202 7.89684 5.84733 8.54996 5.84733ZM3.65153 5.84733C4.27496 5.84733 4.77965 6.35202 4.77965 6.97546C4.77965 7.5989 4.27496 8.10358 3.65153 8.10358C3.02809 8.10358 2.5234 7.5989 2.5234 6.97546C2.5234 6.35202 3.02809 5.84733 3.65153 5.84733ZM35.4468 31.5567C35.4468 32.0614 35.0312 32.4473 34.5562 32.4473H3.4734C2.96871 32.4473 2.58278 32.0317 2.58278 31.5567V10.3005H35.4468V31.5567Z" fill="#F3F0EB"/>
</g>
<defs>
<clipPath id="clip0_203_75">
<rect width="38" height="38" fill="white" transform="translate(-3.05176e-05 -0.00109863)"/>
</clipPath>
</defs>
</svg>
