<svg width="41" height="35" viewBox="0 0 41 35" fill="none" xmlns="http://www.w3.org/2000/svg">
<path d="M17.7284 31.3545C17.7284 32.8838 18.9707 34.1261 20.5 34.1261C22.0293 34.1261 23.2716 32.8838 23.2716 31.3545C23.2716 29.8252 22.0293 28.5829 20.5 28.5829C18.9707 28.5829 17.7284 29.8252 17.7284 31.3545Z" fill="#F3F0EB"/>
<path d="M7.80227 7.4966C5.28897 8.6528 3.03807 10.1165 1.22177 11.8016C0.721573 12.2772 0.409973 12.9455 0.409973 13.6917C0.409973 15.1267 1.56207 16.2911 2.98477 16.2911C3.81707 16.2911 4.51407 15.7786 5.02657 15.2743C6.81417 13.8557 8.76577 12.6995 10.8322 11.8262L7.80227 7.4966Z" fill="#F3F0EB"/>
<path d="M39.8643 11.8877C34.7475 7.35311 27.9005 4.68401 20.5 4.68401C19.4545 4.68401 18.409 4.74551 17.3717 4.85621L20.8936 9.88281C26.4327 9.96891 31.6766 11.8549 35.9734 15.2661C36.5761 15.8401 37.1829 16.287 38.0152 16.287C39.4379 16.287 40.59 15.1226 40.59 13.6876C40.59 12.9906 40.3153 12.3551 39.8643 11.8877Z" fill="#F3F0EB"/>
<path d="M22.9231 12.7856L27.5356 19.3743C28.6344 19.8745 29.6758 20.4854 30.6352 21.1988C31.1887 21.6457 31.7791 22.0065 32.5171 22.0065C33.9398 22.0065 35.0919 20.8421 35.0919 19.4071C35.0919 18.6609 34.7803 17.9926 34.2801 17.517C31.0821 14.9668 27.1912 13.2571 22.9231 12.7856Z" fill="#F3F0EB"/>
<path d="M12.4517 14.1386C10.291 14.9586 8.33936 16.0861 6.80596 17.435C6.25656 17.9106 5.90396 18.6158 5.90396 19.4071C5.90396 20.8421 7.05606 22.0065 8.47876 22.0065C9.26186 22.0065 10.2213 21.3423 10.4591 21.125C11.9884 20.0098 13.7104 19.1447 15.5595 18.583L12.4517 14.1386Z" fill="#F3F0EB"/>
<path d="M20.6312 25.8195L17.2569 21.002C15.3217 21.4448 13.5546 22.2484 12.5542 23.2365C12.1565 23.6957 11.9105 24.2902 11.9105 24.9503C11.9105 26.3853 13.0626 27.5497 14.4853 27.5497C15.1454 27.5497 15.7276 27.1889 16.1991 26.8855C17.4824 26.2049 18.9461 25.8195 20.4918 25.8195C20.5451 25.8154 20.5861 25.8154 20.6312 25.8195Z" fill="#F3F0EB"/>
<path d="M12.8207 1.9821C11.9966 0.805404 10.3771 0.522504 9.20446 1.3425C8.03186 2.1625 7.74486 3.7861 8.56486 4.9587L26.445 30.4976C27.2691 31.6743 28.8886 31.9572 30.0653 31.1372C31.242 30.3131 31.5249 28.6936 30.7049 27.521L12.8207 1.9821Z" fill="#F3F0EB"/>
</svg>
