<svg width="14" height="14" viewBox="0 0 14 14" fill="none" xmlns="http://www.w3.org/2000/svg">
<path d="M5.66398 6.58603C5.55414 6.47619 5.40516 6.41448 5.24982 6.41448C5.09447 6.41448 4.94549 6.47619 4.83565 6.58603C4.72581 6.69588 4.6641 6.84486 4.6641 7.0002C4.6641 7.15554 4.72581 7.30452 4.83565 7.41437L6.58565 9.16437C6.64016 9.21843 6.7048 9.2612 6.77587 9.29023C6.84694 9.31926 6.92305 9.33398 6.99982 9.33353C7.07967 9.331 7.15816 9.31209 7.23041 9.27797C7.30266 9.24385 7.36712 9.19526 7.41982 9.1352L11.5031 4.46853C11.5974 4.35147 11.6429 4.20254 11.6301 4.05278C11.6172 3.90302 11.5471 3.764 11.4342 3.6647C11.3214 3.56541 11.1746 3.5135 11.0244 3.5198C10.8742 3.5261 10.7323 3.59013 10.6281 3.69853L6.99982 7.89853L5.66398 6.58603Z" fill="#46484C"/>
<path d="M12.2498 6.41687C12.0951 6.41687 11.9467 6.47833 11.8373 6.58773C11.7279 6.69712 11.6665 6.84549 11.6665 7.0002C11.6665 8.23788 11.1748 9.42487 10.2996 10.3C9.42448 11.1752 8.23749 11.6669 6.99982 11.6669C6.0782 11.6664 5.17735 11.3931 4.41085 10.8814C3.64435 10.3697 3.04652 9.6425 2.69276 8.79149C2.33901 7.94047 2.24515 7.00376 2.42304 6.09947C2.60092 5.19519 3.04258 4.36382 3.69232 3.7102C4.12439 3.27234 4.63946 2.92506 5.20738 2.68868C5.77531 2.45229 6.38467 2.33156 6.99982 2.33354C7.37283 2.33587 7.74447 2.3789 8.10815 2.46187C8.18426 2.48541 8.26438 2.49311 8.34357 2.4845C8.42277 2.47589 8.49936 2.45115 8.56863 2.41181C8.6379 2.37246 8.69838 2.31935 8.74633 2.25573C8.79428 2.19212 8.8287 2.11936 8.84746 2.04194C8.86622 1.96451 8.86892 1.88407 8.85539 1.80556C8.84187 1.72706 8.81241 1.65215 8.76883 1.58547C8.72525 1.51878 8.66847 1.46173 8.60199 1.41783C8.53552 1.37393 8.46076 1.3441 8.38232 1.3302C7.92915 1.2236 7.46535 1.1688 6.99982 1.16687C5.84735 1.17286 4.72248 1.52009 3.76716 2.16475C2.81184 2.80941 2.06888 3.72261 1.63205 4.7891C1.19522 5.85559 1.08409 7.02758 1.31269 8.15716C1.54128 9.28675 2.09936 10.3233 2.91648 11.136C3.99955 12.2196 5.46778 12.83 6.99982 12.8335C8.54691 12.8335 10.0306 12.219 11.1246 11.125C12.2186 10.031 12.8332 8.5473 12.8332 7.0002C12.8332 6.84549 12.7717 6.69712 12.6623 6.58773C12.5529 6.47833 12.4045 6.41687 12.2498 6.41687Z" fill="#46484C"/>
</svg>
