<svg width="30" height="30" viewBox="0 0 30 30" fill="none" xmlns="http://www.w3.org/2000/svg">
<path d="M28.0734 11.9541L27.204 11.0848C26.7823 10.6635 26.545 10.0921 26.5445 9.49596V8.26686C26.5429 7.07091 26.067 5.92443 25.2212 5.0789C24.3754 4.23338 23.2288 3.75787 22.0328 3.75668H20.8037C20.5081 3.75996 20.2148 3.70319 19.9417 3.58983C19.6686 3.47647 19.4213 3.30887 19.2149 3.09717L18.3455 2.22781C17.4965 1.38534 16.349 0.912598 15.1529 0.912598C13.9568 0.912598 12.8093 1.38534 11.9602 2.22781L11.0909 3.09717C10.8844 3.30887 10.6372 3.47647 10.3641 3.58983C10.091 3.70319 9.79773 3.75996 9.50206 3.75668H8.27296C7.07702 3.75787 5.93037 4.23338 5.08457 5.0789C4.23876 5.92443 3.76287 7.07091 3.76128 8.26686V9.49596C3.76456 9.79163 3.7078 10.0849 3.59444 10.358C3.48107 10.6311 3.31347 10.8783 3.10177 11.0848L2.23241 11.9541C1.38776 12.802 0.913513 13.95 0.913513 15.1468C0.913513 16.3436 1.38776 17.4916 2.23241 18.3394L3.10177 19.2088C3.31347 19.4152 3.48107 19.6625 3.59444 19.9356C3.7078 20.2087 3.76456 20.502 3.76128 20.7976V22.0267C3.76208 23.2232 4.23762 24.3705 5.08351 25.2166C5.9294 26.0628 7.0765 26.5387 8.27296 26.5399H9.50206C9.79773 26.5366 10.091 26.5934 10.3641 26.7068C10.6372 26.8201 10.8844 26.9877 11.0909 27.1994L11.9602 28.0688C12.8081 28.9134 13.9561 29.3877 15.1529 29.3877C16.3497 29.3877 17.4977 28.9134 18.3455 28.0688L19.2149 27.1994C19.4213 26.9877 19.6686 26.8201 19.9417 26.7068C20.2148 26.5934 20.5081 26.5366 20.8037 26.5399H22.0328C23.229 26.5387 24.3759 26.063 25.2218 25.2172C26.0676 24.3713 26.5433 23.2244 26.5445 22.0282V20.7991C26.545 20.203 26.7823 19.6315 27.204 19.2103L28.0734 18.3409C28.918 17.4931 29.3923 16.3451 29.3923 15.1483C29.3923 13.9515 28.918 12.8035 28.0734 11.9556V11.9541ZM11.4057 9.52593C11.7762 9.52593 12.1383 9.63578 12.4464 9.84159C12.7545 10.0474 12.9947 10.3399 13.1365 10.6822C13.2784 11.0245 13.3156 11.4011 13.2434 11.7645C13.1712 12.1279 12.9929 12.4618 12.731 12.7239C12.4692 12.986 12.1354 13.1645 11.7721 13.237C11.4088 13.3095 11.0321 13.2726 10.6897 13.131C10.3473 12.9894 10.0546 12.7495 9.84853 12.4416C9.64247 12.1337 9.53233 11.7716 9.53204 11.4011C9.53184 11.1549 9.58016 10.9111 9.67423 10.6836C9.7683 10.4561 9.90628 10.2494 10.0803 10.0752C10.2543 9.90109 10.4609 9.76295 10.6883 9.6687C10.9157 9.57444 11.1595 9.52593 11.4057 9.52593ZM18.9001 20.7677C18.5296 20.7677 18.1673 20.6578 17.8592 20.4519C17.5511 20.246 17.311 19.9534 17.1691 19.611C17.0273 19.2687 16.9902 18.892 17.0625 18.5285C17.1348 18.1651 17.3133 17.8312 17.5753 17.5692C17.8373 17.3072 18.1712 17.1287 18.5346 17.0564C18.8981 16.9841 19.2748 17.0212 19.6171 17.163C19.9595 17.3048 20.2521 17.545 20.458 17.8531C20.6639 18.1612 20.7738 18.5235 20.7738 18.894C20.7738 19.391 20.5764 19.8675 20.225 20.2189C19.8736 20.5703 19.3971 20.7677 18.9001 20.7677ZM20.7138 11.7143L11.7204 20.7077C11.4356 20.9855 11.0541 21.1419 10.6562 21.1439C10.2591 21.1396 9.87857 20.9841 9.59199 20.7092C9.31117 20.4262 9.15359 20.0437 9.15359 19.645C9.15359 19.2463 9.31117 18.8638 9.59199 18.5808L18.5854 9.58739C18.8676 9.30514 19.2504 9.14658 19.6496 9.14658C20.0487 9.14658 20.4316 9.30514 20.7138 9.58739C20.9961 9.86964 21.1546 10.2524 21.1546 10.6516C21.1546 11.0508 20.9961 11.4336 20.7138 11.7158V11.7143Z" fill="#DCC29D"/>
</svg>
