<svg width="36" height="22" viewBox="0 0 36 22" fill="none" xmlns="http://www.w3.org/2000/svg">
<path d="M17.8493 11.3759C16.9933 11.4472 16.2087 11.0906 15.3527 10.8052C10.8586 9.30724 6.2933 7.80923 1.79928 6.31123C1.51395 6.16856 1.29995 6.09723 1.08595 5.88323C0.800615 5.66923 0.800615 5.38389 1.08595 5.16989C1.29995 5.02723 1.58528 4.81323 1.87062 4.74189C6.7213 3.31522 11.5006 1.88855 16.3513 0.390548C17.4213 0.03388 18.5627 0.03388 19.704 0.390548C24.4833 1.81722 29.2627 3.24389 34.042 4.67056C34.3274 4.81323 34.6127 4.88456 34.898 5.09856C35.2547 5.31256 35.2547 5.66923 34.898 5.88323C34.684 6.0259 34.47 6.16856 34.1847 6.2399C29.4054 7.80923 24.626 9.44991 19.7753 11.0192C19.1333 11.3046 18.5627 11.3759 17.8493 11.3759Z" fill="#DCC29D"/>
<path d="M8.36198 11.5899C7.64865 11.4473 7.50598 11.8753 7.50598 12.2319C7.50598 14.0866 7.50598 15.8699 7.50598 17.6533C7.50598 18.2953 7.71998 18.6519 8.14798 19.0799C8.29065 19.2226 8.50465 19.3653 8.64732 19.5079C9.78865 20.2926 11.144 20.792 12.4993 21.1486C15.21 21.862 17.9207 22.0046 20.7027 21.648C22.486 21.434 24.2694 20.9346 25.91 20.2213C26.6234 19.8646 27.3367 19.5079 27.836 18.9373C28.1927 18.5806 28.3354 18.2239 28.264 17.7246C28.3354 16.0126 28.3354 14.2293 28.3354 12.4459C28.3354 11.4473 27.622 11.5899 27.3367 11.6613C24.84 12.5173 22.2007 13.3019 19.704 14.1579C18.42 14.5859 17.2073 14.5859 15.9947 14.1579L8.36198 11.5899Z" fill="#DCC29D"/>
<path d="M32.1874 9.94925C31.9734 10.0206 31.9021 10.0919 31.9021 10.3772C31.9021 12.0179 31.9021 13.5873 31.9021 15.2279C31.9021 15.3706 31.8308 15.5846 31.7594 15.7273C31.4028 16.5833 31.0461 17.4393 30.7608 18.2953C30.4754 19.0799 30.6181 19.9359 31.1888 20.5066C31.3314 20.7206 31.6168 20.9346 31.8308 21.0773C32.0448 21.2913 32.4014 21.3626 32.6868 21.4339C33.1861 21.5053 33.6141 21.2199 33.9708 20.9346C34.1134 20.7919 34.3274 20.6493 34.4701 20.4353C34.8981 19.8646 34.9694 19.1513 34.8268 18.5093C34.6128 17.5106 34.1848 16.6546 33.7568 15.7986C33.6141 15.6559 33.6141 15.3706 33.6141 15.2279C33.6141 13.4446 33.6141 11.7326 33.6141 9.94925C33.6141 9.59258 33.3288 9.66391 33.1861 9.73525L32.1874 9.94925Z" fill="#DCC29D"/>
</svg>
