<svg width="25" height="25" viewBox="0 0 25 25" fill="none" xmlns="http://www.w3.org/2000/svg">
<path d="M5.0578 0.320557C2.41179 0.320557 0.250366 2.48198 0.250366 5.12799C0.250366 7.774 2.41179 9.94718 5.0578 9.94718C5.94666 9.94718 6.77222 9.68389 7.48974 9.25806L15.3806 17.1536C15.1549 17.5346 14.9798 17.9461 14.8655 18.3837H9.7053C9.16505 16.3147 7.28776 14.764 5.0578 14.764C2.41179 14.764 0.250366 16.9372 0.250366 19.5832C0.250366 22.2292 2.41179 24.4001 5.0578 24.4001C7.28417 24.4001 9.15921 22.8561 9.70295 20.7921H14.8679C15.4116 22.8561 17.2867 24.4001 19.513 24.4001C22.159 24.4001 24.3299 22.2292 24.3299 19.5832C24.3299 16.9372 22.159 14.764 19.513 14.764C18.6253 14.764 17.8003 15.026 17.0834 15.4508L9.18787 7.55993C9.41275 7.18097 9.58835 6.77211 9.70295 6.3369H14.8679C15.4114 8.40114 17.2864 9.94718 19.513 9.94718C22.159 9.94718 24.3299 7.77399 24.3299 5.12799C24.3299 2.48198 22.159 0.320557 19.513 0.320557C17.2833 0.320557 15.406 1.86178 14.8655 3.92848H9.7053C9.16485 1.86178 7.28757 0.320557 5.0578 0.320557Z" fill="#DCC29D"/>
</svg>
