<svg width="12" height="11" viewBox="0 0 12 11" fill="none" xmlns="http://www.w3.org/2000/svg">
<path d="M11.9947 8.43013C12.018 8.60366 11.9636 8.75453 11.8316 8.88276L10.2825 10.3764C10.2126 10.4518 10.1214 10.516 10.0088 10.5687C9.89619 10.6216 9.78555 10.6555 9.67688 10.6706C9.66911 10.6706 9.64576 10.6725 9.60692 10.6763C9.56815 10.68 9.51767 10.682 9.45555 10.682C9.30798 10.682 9.06918 10.6574 8.73916 10.6084C8.40914 10.5593 8.00537 10.4386 7.52786 10.2463C7.05022 10.0539 6.50862 9.76534 5.90296 9.38065C5.2973 8.99597 4.65277 8.46787 3.96944 7.79646C3.42588 7.27594 2.9755 6.77805 2.61831 6.30282C2.26111 5.82754 1.9738 5.38812 1.75638 4.98453C1.53893 4.58094 1.37587 4.21507 1.26715 3.88691C1.15844 3.55876 1.08467 3.27587 1.04585 3.03824C1.00702 2.80061 0.991491 2.61391 0.999256 2.47812C1.00702 2.34233 1.0109 2.2669 1.0109 2.25181C1.02643 2.1462 1.06138 2.0387 1.11573 1.92931C1.17009 1.81993 1.23609 1.73129 1.31374 1.6634L2.86289 0.158419C2.9716 0.0528062 3.09584 0 3.23562 0C3.33656 0 3.42586 0.028289 3.50351 0.0848671C3.58117 0.141445 3.64717 0.211225 3.70153 0.294206L4.94783 2.59128C5.01772 2.71198 5.03713 2.84399 5.00607 2.98732C4.97501 3.13065 4.909 3.25135 4.80806 3.34942L4.23732 3.90389C4.22179 3.91898 4.2082 3.94349 4.19655 3.97744C4.18491 4.01139 4.17908 4.03967 4.17908 4.06231C4.21014 4.22072 4.28003 4.40177 4.38874 4.60546C4.48192 4.78651 4.62558 5.00716 4.81971 5.26742C5.01383 5.52768 5.2895 5.82752 5.64669 6.16699C5.99612 6.51404 6.30673 6.78369 6.57851 6.9761C6.85023 7.16839 7.07744 7.30989 7.25992 7.40041C7.4424 7.49094 7.58217 7.54563 7.67922 7.56443L7.82478 7.59274C7.84031 7.59274 7.8656 7.58707 7.90051 7.57577C7.93545 7.56443 7.96069 7.55125 7.97624 7.53615L8.64014 6.87984C8.77999 6.75916 8.94298 6.69881 9.12936 6.69881C9.26141 6.69881 9.36618 6.72142 9.44383 6.7667H9.45546L11.7034 8.05668C11.8666 8.15482 11.9636 8.27926 11.9947 8.43013Z" fill="#24C016"/>
</svg>
