<svg width="16" height="28" viewBox="0 0 16 28" fill="none" xmlns="http://www.w3.org/2000/svg">
<path d="M7.83105 -0.000976562C3.51297 -0.000976562 0 3.38128 0 7.53869C0 8.67247 0.255076 9.76211 0.757942 10.7781C0.768064 10.7998 0.778692 10.8211 0.790029 10.8425L6.70679 21.8723C6.92401 22.2771 7.35774 22.5315 7.83095 22.5315C8.30426 22.5315 8.73799 22.2772 8.95511 21.8723L14.8703 10.8455C14.8805 10.8265 14.89 10.8073 14.8991 10.7879C15.4053 9.76903 15.6619 8.67608 15.6619 7.53869C15.6621 3.38128 12.1491 -0.000976562 7.83105 -0.000976562ZM7.83105 11.4851C5.57089 11.4851 3.73211 9.71475 3.73211 7.53869C3.73211 5.36272 5.57089 3.59236 7.83105 3.59236C10.0912 3.59236 11.93 5.36272 11.93 7.53869C11.93 9.71475 10.0912 11.4851 7.83105 11.4851Z" fill="#5E5E5E"/>
<circle cx="7.83107" cy="26.0946" r="1.78161" fill="#5E5E5E"/>
</svg>
